# Blender v2.78 (sub 0) OBJ File: ''
# www.blender.org

o Glow.001_ID7.001
v 3.023290 -0.039070 -1.075025
v 3.033190 5.163200 -1.075235
v -1.377980 -0.039075 0.000000
v -1.377980 5.163200 0.000000
v 1.370000 -0.039075 -0.255000
v 1.370000 5.163200 -0.255000
vt 0.0000 0.0000
vt 0.0000 0.0000
vt 0.0000 1.0000
vt 0.0000 1.0000
vt 1.0000 1.0000
vt 1.0000 0.0000
vn -0.2727 0.0003 -0.9621
vn -0.0924 0.0000 -0.9957
vn -0.2719 0.0000 -0.9623
vn -0.4427 0.0002 -0.8966
vn -0.4443 0.0008 -0.8958

s 1
f 5/1/1 3/2/2 4/3/2
f 6/4/3 5/1/1 4/3/2
f 2/5/4 1/6/5 5/1/1
f 6/4/3 2/5/4 5/1/1
